{
	"asset":{
		"generator":"Khronos glTF Blender I/O v4.0.43",
		"version":"2.0"
	},
	"scene":0,
	"scenes":[
		{
			"name":"Scene",
			"nodes":[
				4
			]
		}
	],
	"nodes":[
		{
			"mesh":0,
			"name":"mesh_0"
		},
		{
			"children":[
				0
			],
			"name":"run_0"
		},
		{
			"children":[
				1
			],
			"name":"GLTF_SceneRootNode",
			"rotation":[
				0.70710688829422,
				0,
				0,
				0.7071066498756409
			]
		},
		{
			"children":[
				2
			],
			"name":"root"
		},
		{
			"children":[
				3
			],
			"name":"Sketchfab_model",
			"rotation":[
				-0.5000744462013245,
				0.49992555379867554,
				0.49992555379867554,
				0.5000744462013245
			]
		}
	],
	"animations":[
		{
			"channels":[
				{
					"sampler":0,
					"target":{
						"node":0,
						"path":"weights"
					}
				}
			],
			"name":"Key.001Action",
			"samplers":[
				{
					"input":91,
					"interpolation":"LINEAR",
					"output":92
				}
			]
		}
	],
	"materials":[
		{
			"doubleSided":true,
			"name":"Brown Fur.001",
			"normalTexture":{
				"index":0,
				"texCoord":1
			},
			"pbrMetallicRoughness":{
				"baseColorTexture":{
					"index":1,
					"texCoord":1
				},
				"metallicFactor":0,
				"metallicRoughnessTexture":{
					"index":2,
					"texCoord":1
				}
			}
		}
	],
	"meshes":[
		{
			"extras":{
				"targetNames":[
					"target_0",
					"target_1",
					"target_2",
					"target_3",
					"target_4",
					"target_5",
					"target_6",
					"target_7",
					"target_8",
					"target_9",
					"target_10",
					"target_11",
					"target_12",
					"target_13",
					"target_14",
					"target_15",
					"target_16",
					"target_17",
					"target_18",
					"target_19",
					"target_20",
					"target_21",
					"target_22",
					"target_23",
					"target_24",
					"target_25",
					"target_26",
					"target_27",
					"target_28",
					"target_29",
					"target_30",
					"target_31",
					"target_32",
					"target_33",
					"target_34",
					"target_35",
					"target_36",
					"target_37",
					"target_38",
					"target_39",
					"target_40",
					"target_41",
					"target_42"
				]
			},
			"name":"mesh_0",
			"primitives":[
				{
					"attributes":{
						"POSITION":0,
						"NORMAL":1,
						"TEXCOORD_0":2,
						"TEXCOORD_1":3
					},
					"indices":4,
					"material":0,
					"targets":[
						{
							"POSITION":5,
							"NORMAL":6
						},
						{
							"POSITION":7,
							"NORMAL":8
						},
						{
							"POSITION":9,
							"NORMAL":10
						},
						{
							"POSITION":11,
							"NORMAL":12
						},
						{
							"POSITION":13,
							"NORMAL":14
						},
						{
							"POSITION":15,
							"NORMAL":16
						},
						{
							"POSITION":17,
							"NORMAL":18
						},
						{
							"POSITION":19,
							"NORMAL":20
						},
						{
							"POSITION":21,
							"NORMAL":22
						},
						{
							"POSITION":23,
							"NORMAL":24
						},
						{
							"POSITION":25,
							"NORMAL":26
						},
						{
							"POSITION":27,
							"NORMAL":28
						},
						{
							"POSITION":29,
							"NORMAL":30
						},
						{
							"POSITION":31,
							"NORMAL":32
						},
						{
							"POSITION":33,
							"NORMAL":34
						},
						{
							"POSITION":35,
							"NORMAL":36
						},
						{
							"POSITION":37,
							"NORMAL":38
						},
						{
							"POSITION":39,
							"NORMAL":40
						},
						{
							"POSITION":41,
							"NORMAL":42
						},
						{
							"POSITION":43,
							"NORMAL":44
						},
						{
							"POSITION":45,
							"NORMAL":46
						},
						{
							"POSITION":47,
							"NORMAL":48
						},
						{
							"POSITION":49,
							"NORMAL":50
						},
						{
							"POSITION":51,
							"NORMAL":52
						},
						{
							"POSITION":53,
							"NORMAL":54
						},
						{
							"POSITION":55,
							"NORMAL":56
						},
						{
							"POSITION":57,
							"NORMAL":58
						},
						{
							"POSITION":59,
							"NORMAL":60
						},
						{
							"POSITION":61,
							"NORMAL":62
						},
						{
							"POSITION":63,
							"NORMAL":64
						},
						{
							"POSITION":65,
							"NORMAL":66
						},
						{
							"POSITION":67,
							"NORMAL":68
						},
						{
							"POSITION":69,
							"NORMAL":70
						},
						{
							"POSITION":71,
							"NORMAL":72
						},
						{
							"POSITION":73,
							"NORMAL":74
						},
						{
							"POSITION":75,
							"NORMAL":76
						},
						{
							"POSITION":77,
							"NORMAL":78
						},
						{
							"POSITION":79,
							"NORMAL":80
						},
						{
							"POSITION":81,
							"NORMAL":82
						},
						{
							"POSITION":83,
							"NORMAL":84
						},
						{
							"POSITION":85,
							"NORMAL":86
						},
						{
							"POSITION":87,
							"NORMAL":88
						},
						{
							"POSITION":89,
							"NORMAL":90
						}
					]
				}
			],
			"weights":[
				1,
				0,
				0,
				0,
				0,
				0,
				0,
				0,
				0,
				0,
				0,
				0,
				0,
				0,
				0,
				0,
				0,
				0,
				0,
				0,
				0,
				0,
				0,
				0,
				0,
				0,
				0,
				0,
				0,
				0,
				0,
				0,
				0,
				0,
				0,
				0,
				0,
				0,
				0,
				0,
				0,
				0,
				0
			]
		}
	],
	"textures":[
		{
			"sampler":0,
			"source":0
		},
		{
			"sampler":0,
			"source":1
		},
		{
			"sampler":0,
			"source":2
		}
	],
	"images":[
		{
			"mimeType":"image/jpeg",
			"name":"Fur10 normal 4k",
			"uri":"Fur10%20normal%204k.jpg"
		},
		{
			"mimeType":"image/jpeg",
			"name":"Fur10 diffuse 4k",
			"uri":"Fur10%20diffuse%204k.jpg"
		},
		{
			"mimeType":"image/png",
			"name":"Fur10 roughness 4k",
			"uri":"Fur10%20roughness%204k.png"
		}
	],
	"accessors":[
		{
			"bufferView":0,
			"componentType":5126,
			"count":5932,
			"max":[
				0.34784403443336487,
				2.2176008224487305,
				1.470391869544983
			],
			"min":[
				-0.34784403443336487,
				-0.0003542412887327373,
				-1.62888503074646
			],
			"type":"VEC3"
		},
		{
			"bufferView":1,
			"componentType":5126,
			"count":5932,
			"type":"VEC3"
		},
		{
			"bufferView":2,
			"componentType":5126,
			"count":5932,
			"type":"VEC2"
		},
		{
			"bufferView":3,
			"componentType":5126,
			"count":5932,
			"type":"VEC2"
		},
		{
			"bufferView":4,
			"componentType":5123,
			"count":7785,
			"type":"SCALAR"
		},
		{
			"bufferView":5,
			"componentType":5126,
			"count":5932,
			"max":[
				0.6990526914596558,
				0.6142461895942688,
				3.110208511352539
			],
			"min":[
				-0.7059040665626526,
				-0.28258466720581055,
				-3.109875440597534
			],
			"type":"VEC3"
		},
		{
			"bufferView":6,
			"componentType":5126,
			"count":5932,
			"type":"VEC3"
		},
		{
			"bufferView":7,
			"componentType":5126,
			"count":5932,
			"max":[
				0.7001514434814453,
				0.600731372833252,
				3.125269889831543
			],
			"min":[
				-0.7047696709632874,
				-0.2822035551071167,
				-3.108788013458252
			],
			"type":"VEC3"
		},
		{
			"bufferView":8,
			"componentType":5126,
			"count":5932,
			"type":"VEC3"
		},
		{
			"bufferView":9,
			"componentType":5126,
			"count":5932,
			"max":[
				0.7012490630149841,
				0.576985239982605,
				3.141671895980835
			],
			"min":[
				-0.7030032277107239,
				-0.2797272205352783,
				-3.10711932182312
			],
			"type":"VEC3"
		},
		{
			"bufferView":10,
			"componentType":5126,
			"count":5932,
			"type":"VEC3"
		},
		{
			"bufferView":11,
			"componentType":5126,
			"count":5932,
			"max":[
				0.7022160887718201,
				0.5349989533424377,
				3.157663106918335
			],
			"min":[
				-0.700708270072937,
				-0.282565712928772,
				-3.1057779788970947
			],
			"type":"VEC3"
		},
		{
			"bufferView":12,
			"componentType":5126,
			"count":5932,
			"type":"VEC3"
		},
		{
			"bufferView":13,
			"componentType":5126,
			"count":5932,
			"max":[
				0.7030313611030579,
				0.4864044785499573,
				3.1735646724700928
			],
			"min":[
				-0.6983699798583984,
				-0.29380595684051514,
				-3.105595588684082
			],
			"type":"VEC3"
		},
		{
			"bufferView":14,
			"componentType":5126,
			"count":5932,
			"type":"VEC3"
		},
		{
			"bufferView":15,
			"componentType":5126,
			"count":5932,
			"max":[
				0.7036174535751343,
				0.44542455673217773,
				3.1931920051574707
			],
			"min":[
				-0.6970020532608032,
				-0.3045651912689209,
				-3.1012978553771973
			],
			"type":"VEC3"
		},
		{
			"bufferView":16,
			"componentType":5126,
			"count":5932,
			"type":"VEC3"
		},
		{
			"bufferView":17,
			"componentType":5126,
			"count":5932,
			"max":[
				0.7039428353309631,
				0.3966118097305298,
				3.221820831298828
			],
			"min":[
				-0.6961312294006348,
				-0.31046104431152344,
				-3.088095188140869
			],
			"type":"VEC3"
		},
		{
			"bufferView":18,
			"componentType":5126,
			"count":5932,
			"type":"VEC3"
		},
		{
			"bufferView":19,
			"componentType":5126,
			"count":5932,
			"max":[
				0.7038589715957642,
				0.35723721981048584,
				3.2505569458007812
			],
			"min":[
				-0.6955195665359497,
				-0.31318044662475586,
				-3.071505069732666
			],
			"type":"VEC3"
		},
		{
			"bufferView":20,
			"componentType":5126,
			"count":5932,
			"type":"VEC3"
		},
		{
			"bufferView":21,
			"componentType":5126,
			"count":5932,
			"max":[
				0.7034424543380737,
				0.3438786268234253,
				3.2706477642059326
			],
			"min":[
				-0.6948792934417725,
				-0.3154137134552002,
				-3.0586113929748535
			],
			"type":"VEC3"
		},
		{
			"bufferView":22,
			"componentType":5126,
			"count":5932,
			"type":"VEC3"
		},
		{
			"bufferView":23,
			"componentType":5126,
			"count":5932,
			"max":[
				0.702877402305603,
				0.33554136753082275,
				3.2849671840667725
			],
			"min":[
				-0.6945030093193054,
				-0.31684398651123047,
				-3.0483031272888184
			],
			"type":"VEC3"
		},
		{
			"bufferView":24,
			"componentType":5126,
			"count":5932,
			"type":"VEC3"
		},
		{
			"bufferView":25,
			"componentType":5126,
			"count":5932,
			"max":[
				0.7024018168449402,
				0.3803090453147888,
				3.291691303253174
			],
			"min":[
				-0.6947884559631348,
				-0.31857776641845703,
				-3.042525291442871
			],
			"type":"VEC3"
		},
		{
			"bufferView":26,
			"componentType":5126,
			"count":5932,
			"type":"VEC3"
		},
		{
			"bufferView":27,
			"componentType":5126,
			"count":5932,
			"max":[
				0.7019616365432739,
				0.42122405767440796,
				3.2924466133117676
			],
			"min":[
				-0.6950702667236328,
				-0.3234555721282959,
				-3.041565418243408
			],
			"type":"VEC3"
		},
		{
			"bufferView":28,
			"componentType":5126,
			"count":5932,
			"type":"VEC3"
		},
		{
			"bufferView":29,
			"componentType":5126,
			"count":5932,
			"max":[
				0.7014100551605225,
				0.4492712914943695,
				3.2946619987487793
			],
			"min":[
				-0.6951650381088257,
				-0.3321026563644409,
				-3.0402023792266846
			],
			"type":"VEC3"
		},
		{
			"bufferView":30,
			"componentType":5126,
			"count":5932,
			"type":"VEC3"
		},
		{
			"bufferView":31,
			"componentType":5126,
			"count":5932,
			"max":[
				0.7007678747177124,
				0.46607714891433716,
				3.2959680557250977
			],
			"min":[
				-0.6951195001602173,
				-0.3444697856903076,
				-3.038193702697754
			],
			"type":"VEC3"
		},
		{
			"bufferView":32,
			"componentType":5126,
			"count":5932,
			"type":"VEC3"
		},
		{
			"bufferView":33,
			"componentType":5126,
			"count":5932,
			"max":[
				0.7000945210456848,
				0.4865707457065582,
				3.2968437671661377
			],
			"min":[
				-0.6948814392089844,
				-0.36797237396240234,
				-3.0357913970947266
			],
			"type":"VEC3"
		},
		{
			"bufferView":34,
			"componentType":5126,
			"count":5932,
			"type":"VEC3"
		},
		{
			"bufferView":35,
			"componentType":5126,
			"count":5932,
			"max":[
				0.699529767036438,
				0.5345709323883057,
				3.2974748611450195
			],
			"min":[
				-0.6944376230239868,
				-0.3889737129211426,
				-3.033456325531006
			],
			"type":"VEC3"
		},
		{
			"bufferView":36,
			"componentType":5126,
			"count":5932,
			"type":"VEC3"
		},
		{
			"bufferView":37,
			"componentType":5126,
			"count":5932,
			"max":[
				0.6992113590240479,
				0.5481536984443665,
				3.2980217933654785
			],
			"min":[
				-0.6935358047485352,
				-0.4065053462982178,
				-3.03159761428833
			],
			"type":"VEC3"
		},
		{
			"bufferView":38,
			"componentType":5126,
			"count":5932,
			"type":"VEC3"
		},
		{
			"bufferView":39,
			"componentType":5126,
			"count":5932,
			"max":[
				0.6992372274398804,
				0.5535208582878113,
				3.298470973968506
			],
			"min":[
				-0.69273841381073,
				-0.418729305267334,
				-3.030808210372925
			],
			"type":"VEC3"
		},
		{
			"bufferView":40,
			"componentType":5126,
			"count":5932,
			"type":"VEC3"
		},
		{
			"bufferView":41,
			"componentType":5126,
			"count":5932,
			"max":[
				0.6992735862731934,
				0.5541760325431824,
				3.298259735107422
			],
			"min":[
				-0.6929436922073364,
				-0.4269440174102783,
				-3.030972480773926
			],
			"type":"VEC3"
		},
		{
			"bufferView":42,
			"componentType":5126,
			"count":5932,
			"type":"VEC3"
		},
		{
			"bufferView":43,
			"componentType":5126,
			"count":5932,
			"max":[
				0.6991159319877625,
				0.5528348684310913,
				3.2966177463531494
			],
			"min":[
				-0.6936777234077454,
				-0.43314599990844727,
				-3.031735897064209
			],
			"type":"VEC3"
		},
		{
			"bufferView":44,
			"componentType":5126,
			"count":5932,
			"type":"VEC3"
		},
		{
			"bufferView":45,
			"componentType":5126,
			"count":5932,
			"max":[
				0.6988111734390259,
				0.5481679439544678,
				3.296335220336914
			],
			"min":[
				-0.6939134001731873,
				-0.4365442991256714,
				-3.034029722213745
			],
			"type":"VEC3"
		},
		{
			"bufferView":46,
			"componentType":5126,
			"count":5932,
			"type":"VEC3"
		},
		{
			"bufferView":47,
			"componentType":5126,
			"count":5932,
			"max":[
				0.6983757019042969,
				0.541555643081665,
				3.2963435649871826
			],
			"min":[
				-0.6936998963356018,
				-0.43742620944976807,
				-3.038267135620117
			],
			"type":"VEC3"
		},
		{
			"bufferView":48,
			"componentType":5126,
			"count":5932,
			"type":"VEC3"
		},
		{
			"bufferView":49,
			"componentType":5126,
			"count":5932,
			"max":[
				0.6978189945220947,
				0.5364962220191956,
				3.2961559295654297
			],
			"min":[
				-0.693911075592041,
				-0.43693363666534424,
				-3.043179988861084
			],
			"type":"VEC3"
		},
		{
			"bufferView":50,
			"componentType":5126,
			"count":5932,
			"type":"VEC3"
		},
		{
			"bufferView":51,
			"componentType":5126,
			"count":5932,
			"max":[
				0.6970343589782715,
				0.5347691774368286,
				3.2958388328552246
			],
			"min":[
				-0.6945208311080933,
				-0.4361981153488159,
				-3.047650098800659
			],
			"type":"VEC3"
		},
		{
			"bufferView":52,
			"componentType":5126,
			"count":5932,
			"type":"VEC3"
		},
		{
			"bufferView":53,
			"componentType":5126,
			"count":5932,
			"max":[
				0.6959296464920044,
				0.6024065017700195,
				3.2950150966644287
			],
			"min":[
				-0.6951828002929688,
				-0.4332435131072998,
				-3.051306962966919
			],
			"type":"VEC3"
		},
		{
			"bufferView":54,
			"componentType":5126,
			"count":5932,
			"type":"VEC3"
		},
		{
			"bufferView":55,
			"componentType":5126,
			"count":5932,
			"max":[
				0.6944055557250977,
				0.694002091884613,
				3.2936441898345947
			],
			"min":[
				-0.6957988739013672,
				-0.4251476526260376,
				-3.054514169692993
			],
			"type":"VEC3"
		},
		{
			"bufferView":56,
			"componentType":5126,
			"count":5932,
			"type":"VEC3"
		},
		{
			"bufferView":57,
			"componentType":5126,
			"count":5932,
			"max":[
				0.692436933517456,
				0.7541940212249756,
				3.2913284301757812
			],
			"min":[
				-0.6964423656463623,
				-0.41552019119262695,
				-3.0582351684570312
			],
			"type":"VEC3"
		},
		{
			"bufferView":58,
			"componentType":5126,
			"count":5932,
			"type":"VEC3"
		},
		{
			"bufferView":59,
			"componentType":5126,
			"count":5932,
			"max":[
				0.6911040544509888,
				0.7797524333000183,
				3.288468599319458
			],
			"min":[
				-0.6971384286880493,
				-0.4067724943161011,
				-3.0619683265686035
			],
			"type":"VEC3"
		},
		{
			"bufferView":60,
			"componentType":5126,
			"count":5932,
			"type":"VEC3"
		},
		{
			"bufferView":61,
			"componentType":5126,
			"count":5932,
			"max":[
				0.690601110458374,
				0.7771348357200623,
				3.285266160964966
			],
			"min":[
				-0.6981445550918579,
				-0.3983139991760254,
				-3.0656678676605225
			],
			"type":"VEC3"
		},
		{
			"bufferView":62,
			"componentType":5126,
			"count":5932,
			"type":"VEC3"
		},
		{
			"bufferView":63,
			"componentType":5126,
			"count":5932,
			"max":[
				0.6907239556312561,
				0.7469527125358582,
				3.2811355590820312
			],
			"min":[
				-0.699103832244873,
				-0.38909971714019775,
				-3.0697407722473145
			],
			"type":"VEC3"
		},
		{
			"bufferView":64,
			"componentType":5126,
			"count":5932,
			"type":"VEC3"
		},
		{
			"bufferView":65,
			"componentType":5126,
			"count":5932,
			"max":[
				0.6907535791397095,
				0.7246034741401672,
				3.275808095932007
			],
			"min":[
				-0.7000680565834045,
				-0.3779696226119995,
				-3.074276924133301
			],
			"type":"VEC3"
		},
		{
			"bufferView":66,
			"componentType":5126,
			"count":5932,
			"type":"VEC3"
		},
		{
			"bufferView":67,
			"componentType":5126,
			"count":5932,
			"max":[
				0.691511869430542,
				0.6899622678756714,
				3.2683136463165283
			],
			"min":[
				-0.7013474702835083,
				-0.3644319772720337,
				-3.0792665481567383
			],
			"type":"VEC3"
		},
		{
			"bufferView":68,
			"componentType":5126,
			"count":5932,
			"type":"VEC3"
		},
		{
			"bufferView":69,
			"componentType":5126,
			"count":5932,
			"max":[
				0.6935588717460632,
				0.6129848957061768,
				3.2566189765930176
			],
			"min":[
				-0.7023646831512451,
				-0.34909582138061523,
				-3.08467698097229
			],
			"type":"VEC3"
		},
		{
			"bufferView":70,
			"componentType":5126,
			"count":5932,
			"type":"VEC3"
		},
		{
			"bufferView":71,
			"componentType":5126,
			"count":5932,
			"max":[
				0.6941949129104614,
				0.5473787784576416,
				3.242115020751953
			],
			"min":[
				-0.7029327154159546,
				-0.333776593208313,
				-3.089613676071167
			],
			"type":"VEC3"
		},
		{
			"bufferView":72,
			"componentType":5126,
			"count":5932,
			"type":"VEC3"
		},
		{
			"bufferView":73,
			"componentType":5126,
			"count":5932,
			"max":[
				0.6944376230239868,
				0.5088778734207153,
				3.224935293197632
			],
			"min":[
				-0.7036632299423218,
				-0.31804049015045166,
				-3.093994140625
			],
			"type":"VEC3"
		},
		{
			"bufferView":74,
			"componentType":5126,
			"count":5932,
			"type":"VEC3"
		},
		{
			"bufferView":75,
			"componentType":5126,
			"count":5932,
			"max":[
				0.6948599815368652,
				0.5539611577987671,
				3.2041468620300293
			],
			"min":[
				-0.7045422196388245,
				-0.3029654026031494,
				-3.0980000495910645
			],
			"type":"VEC3"
		},
		{
			"bufferView":76,
			"componentType":5126,
			"count":5932,
			"type":"VEC3"
		},
		{
			"bufferView":77,
			"componentType":5126,
			"count":5932,
			"max":[
				0.6952974796295166,
				0.5924781560897827,
				3.18483304977417
			],
			"min":[
				-0.7051962614059448,
				-0.29128146171569824,
				-3.101088285446167
			],
			"type":"VEC3"
		},
		{
			"bufferView":78,
			"componentType":5126,
			"count":5932,
			"type":"VEC3"
		},
		{
			"bufferView":79,
			"componentType":5126,
			"count":5932,
			"max":[
				0.6959595680236816,
				0.610082745552063,
				3.1666574478149414
			],
			"min":[
				-0.7056277990341187,
				-0.2835733890533447,
				-3.1036739349365234
			],
			"type":"VEC3"
		},
		{
			"bufferView":80,
			"componentType":5126,
			"count":5932,
			"type":"VEC3"
		},
		{
			"bufferView":81,
			"componentType":5126,
			"count":5932,
			"max":[
				0.6969203352928162,
				0.6181521415710449,
				3.1484742164611816
			],
			"min":[
				-0.7059816122055054,
				-0.2801781892776489,
				-3.1058921813964844
			],
			"type":"VEC3"
		},
		{
			"bufferView":82,
			"componentType":5126,
			"count":5932,
			"type":"VEC3"
		},
		{
			"bufferView":83,
			"componentType":5126,
			"count":5932,
			"max":[
				0.6976243257522583,
				0.6197504997253418,
				3.1331682205200195
			],
			"min":[
				-0.7061183452606201,
				-0.278564453125,
				-3.107393503189087
			],
			"type":"VEC3"
		},
		{
			"bufferView":84,
			"componentType":5126,
			"count":5932,
			"type":"VEC3"
		},
		{
			"bufferView":85,
			"componentType":5126,
			"count":5932,
			"max":[
				0.6981359720230103,
				0.6195251941680908,
				3.119234085083008
			],
			"min":[
				-0.7061474323272705,
				-0.2789316177368164,
				-3.108804225921631
			],
			"type":"VEC3"
		},
		{
			"bufferView":86,
			"componentType":5126,
			"count":5932,
			"type":"VEC3"
		},
		{
			"bufferView":87,
			"componentType":5126,
			"count":5932,
			"max":[
				0.698535144329071,
				0.6183106303215027,
				3.1083500385284424
			],
			"min":[
				-0.7061571478843689,
				-0.2815467119216919,
				-3.109926462173462
			],
			"type":"VEC3"
		},
		{
			"bufferView":88,
			"componentType":5126,
			"count":5932,
			"type":"VEC3"
		},
		{
			"bufferView":89,
			"componentType":5126,
			"count":5932,
			"max":[
				0.6986399292945862,
				0.6176784038543701,
				3.1048505306243896
			],
			"min":[
				-0.7061556577682495,
				-0.2827702760696411,
				-3.1102161407470703
			],
			"type":"VEC3"
		},
		{
			"bufferView":90,
			"componentType":5126,
			"count":5932,
			"type":"VEC3"
		},
		{
			"bufferView":91,
			"componentType":5126,
			"count":43,
			"max":[
				1.75
			],
			"min":[
				0
			],
			"type":"SCALAR"
		},
		{
			"bufferView":92,
			"componentType":5126,
			"count":1849,
			"type":"SCALAR"
		}
	],
	"bufferViews":[
		{
			"buffer":0,
			"byteLength":71184,
			"byteOffset":0,
			"target":34962
		},
		{
			"buffer":0,
			"byteLength":71184,
			"byteOffset":71184,
			"target":34962
		},
		{
			"buffer":0,
			"byteLength":47456,
			"byteOffset":142368,
			"target":34962
		},
		{
			"buffer":0,
			"byteLength":47456,
			"byteOffset":189824,
			"target":34962
		},
		{
			"buffer":0,
			"byteLength":15570,
			"byteOffset":237280,
			"target":34963
		},
		{
			"buffer":0,
			"byteLength":71184,
			"byteOffset":252852,
			"target":34962
		},
		{
			"buffer":0,
			"byteLength":71184,
			"byteOffset":324036,
			"target":34962
		},
		{
			"buffer":0,
			"byteLength":71184,
			"byteOffset":395220,
			"target":34962
		},
		{
			"buffer":0,
			"byteLength":71184,
			"byteOffset":466404,
			"target":34962
		},
		{
			"buffer":0,
			"byteLength":71184,
			"byteOffset":537588,
			"target":34962
		},
		{
			"buffer":0,
			"byteLength":71184,
			"byteOffset":608772,
			"target":34962
		},
		{
			"buffer":0,
			"byteLength":71184,
			"byteOffset":679956,
			"target":34962
		},
		{
			"buffer":0,
			"byteLength":71184,
			"byteOffset":751140,
			"target":34962
		},
		{
			"buffer":0,
			"byteLength":71184,
			"byteOffset":822324,
			"target":34962
		},
		{
			"buffer":0,
			"byteLength":71184,
			"byteOffset":893508,
			"target":34962
		},
		{
			"buffer":0,
			"byteLength":71184,
			"byteOffset":964692,
			"target":34962
		},
		{
			"buffer":0,
			"byteLength":71184,
			"byteOffset":1035876,
			"target":34962
		},
		{
			"buffer":0,
			"byteLength":71184,
			"byteOffset":1107060,
			"target":34962
		},
		{
			"buffer":0,
			"byteLength":71184,
			"byteOffset":1178244,
			"target":34962
		},
		{
			"buffer":0,
			"byteLength":71184,
			"byteOffset":1249428,
			"target":34962
		},
		{
			"buffer":0,
			"byteLength":71184,
			"byteOffset":1320612,
			"target":34962
		},
		{
			"buffer":0,
			"byteLength":71184,
			"byteOffset":1391796,
			"target":34962
		},
		{
			"buffer":0,
			"byteLength":71184,
			"byteOffset":1462980,
			"target":34962
		},
		{
			"buffer":0,
			"byteLength":71184,
			"byteOffset":1534164,
			"target":34962
		},
		{
			"buffer":0,
			"byteLength":71184,
			"byteOffset":1605348,
			"target":34962
		},
		{
			"buffer":0,
			"byteLength":71184,
			"byteOffset":1676532,
			"target":34962
		},
		{
			"buffer":0,
			"byteLength":71184,
			"byteOffset":1747716,
			"target":34962
		},
		{
			"buffer":0,
			"byteLength":71184,
			"byteOffset":1818900,
			"target":34962
		},
		{
			"buffer":0,
			"byteLength":71184,
			"byteOffset":1890084,
			"target":34962
		},
		{
			"buffer":0,
			"byteLength":71184,
			"byteOffset":1961268,
			"target":34962
		},
		{
			"buffer":0,
			"byteLength":71184,
			"byteOffset":2032452,
			"target":34962
		},
		{
			"buffer":0,
			"byteLength":71184,
			"byteOffset":2103636,
			"target":34962
		},
		{
			"buffer":0,
			"byteLength":71184,
			"byteOffset":2174820,
			"target":34962
		},
		{
			"buffer":0,
			"byteLength":71184,
			"byteOffset":2246004,
			"target":34962
		},
		{
			"buffer":0,
			"byteLength":71184,
			"byteOffset":2317188,
			"target":34962
		},
		{
			"buffer":0,
			"byteLength":71184,
			"byteOffset":2388372,
			"target":34962
		},
		{
			"buffer":0,
			"byteLength":71184,
			"byteOffset":2459556,
			"target":34962
		},
		{
			"buffer":0,
			"byteLength":71184,
			"byteOffset":2530740,
			"target":34962
		},
		{
			"buffer":0,
			"byteLength":71184,
			"byteOffset":2601924,
			"target":34962
		},
		{
			"buffer":0,
			"byteLength":71184,
			"byteOffset":2673108,
			"target":34962
		},
		{
			"buffer":0,
			"byteLength":71184,
			"byteOffset":2744292,
			"target":34962
		},
		{
			"buffer":0,
			"byteLength":71184,
			"byteOffset":2815476,
			"target":34962
		},
		{
			"buffer":0,
			"byteLength":71184,
			"byteOffset":2886660,
			"target":34962
		},
		{
			"buffer":0,
			"byteLength":71184,
			"byteOffset":2957844,
			"target":34962
		},
		{
			"buffer":0,
			"byteLength":71184,
			"byteOffset":3029028,
			"target":34962
		},
		{
			"buffer":0,
			"byteLength":71184,
			"byteOffset":3100212,
			"target":34962
		},
		{
			"buffer":0,
			"byteLength":71184,
			"byteOffset":3171396,
			"target":34962
		},
		{
			"buffer":0,
			"byteLength":71184,
			"byteOffset":3242580,
			"target":34962
		},
		{
			"buffer":0,
			"byteLength":71184,
			"byteOffset":3313764,
			"target":34962
		},
		{
			"buffer":0,
			"byteLength":71184,
			"byteOffset":3384948,
			"target":34962
		},
		{
			"buffer":0,
			"byteLength":71184,
			"byteOffset":3456132,
			"target":34962
		},
		{
			"buffer":0,
			"byteLength":71184,
			"byteOffset":3527316,
			"target":34962
		},
		{
			"buffer":0,
			"byteLength":71184,
			"byteOffset":3598500,
			"target":34962
		},
		{
			"buffer":0,
			"byteLength":71184,
			"byteOffset":3669684,
			"target":34962
		},
		{
			"buffer":0,
			"byteLength":71184,
			"byteOffset":3740868,
			"target":34962
		},
		{
			"buffer":0,
			"byteLength":71184,
			"byteOffset":3812052,
			"target":34962
		},
		{
			"buffer":0,
			"byteLength":71184,
			"byteOffset":3883236,
			"target":34962
		},
		{
			"buffer":0,
			"byteLength":71184,
			"byteOffset":3954420,
			"target":34962
		},
		{
			"buffer":0,
			"byteLength":71184,
			"byteOffset":4025604,
			"target":34962
		},
		{
			"buffer":0,
			"byteLength":71184,
			"byteOffset":4096788,
			"target":34962
		},
		{
			"buffer":0,
			"byteLength":71184,
			"byteOffset":4167972,
			"target":34962
		},
		{
			"buffer":0,
			"byteLength":71184,
			"byteOffset":4239156,
			"target":34962
		},
		{
			"buffer":0,
			"byteLength":71184,
			"byteOffset":4310340,
			"target":34962
		},
		{
			"buffer":0,
			"byteLength":71184,
			"byteOffset":4381524,
			"target":34962
		},
		{
			"buffer":0,
			"byteLength":71184,
			"byteOffset":4452708,
			"target":34962
		},
		{
			"buffer":0,
			"byteLength":71184,
			"byteOffset":4523892,
			"target":34962
		},
		{
			"buffer":0,
			"byteLength":71184,
			"byteOffset":4595076,
			"target":34962
		},
		{
			"buffer":0,
			"byteLength":71184,
			"byteOffset":4666260,
			"target":34962
		},
		{
			"buffer":0,
			"byteLength":71184,
			"byteOffset":4737444,
			"target":34962
		},
		{
			"buffer":0,
			"byteLength":71184,
			"byteOffset":4808628,
			"target":34962
		},
		{
			"buffer":0,
			"byteLength":71184,
			"byteOffset":4879812,
			"target":34962
		},
		{
			"buffer":0,
			"byteLength":71184,
			"byteOffset":4950996,
			"target":34962
		},
		{
			"buffer":0,
			"byteLength":71184,
			"byteOffset":5022180,
			"target":34962
		},
		{
			"buffer":0,
			"byteLength":71184,
			"byteOffset":5093364,
			"target":34962
		},
		{
			"buffer":0,
			"byteLength":71184,
			"byteOffset":5164548,
			"target":34962
		},
		{
			"buffer":0,
			"byteLength":71184,
			"byteOffset":5235732,
			"target":34962
		},
		{
			"buffer":0,
			"byteLength":71184,
			"byteOffset":5306916,
			"target":34962
		},
		{
			"buffer":0,
			"byteLength":71184,
			"byteOffset":5378100,
			"target":34962
		},
		{
			"buffer":0,
			"byteLength":71184,
			"byteOffset":5449284,
			"target":34962
		},
		{
			"buffer":0,
			"byteLength":71184,
			"byteOffset":5520468,
			"target":34962
		},
		{
			"buffer":0,
			"byteLength":71184,
			"byteOffset":5591652,
			"target":34962
		},
		{
			"buffer":0,
			"byteLength":71184,
			"byteOffset":5662836,
			"target":34962
		},
		{
			"buffer":0,
			"byteLength":71184,
			"byteOffset":5734020,
			"target":34962
		},
		{
			"buffer":0,
			"byteLength":71184,
			"byteOffset":5805204,
			"target":34962
		},
		{
			"buffer":0,
			"byteLength":71184,
			"byteOffset":5876388,
			"target":34962
		},
		{
			"buffer":0,
			"byteLength":71184,
			"byteOffset":5947572,
			"target":34962
		},
		{
			"buffer":0,
			"byteLength":71184,
			"byteOffset":6018756,
			"target":34962
		},
		{
			"buffer":0,
			"byteLength":71184,
			"byteOffset":6089940,
			"target":34962
		},
		{
			"buffer":0,
			"byteLength":71184,
			"byteOffset":6161124,
			"target":34962
		},
		{
			"buffer":0,
			"byteLength":71184,
			"byteOffset":6232308,
			"target":34962
		},
		{
			"buffer":0,
			"byteLength":71184,
			"byteOffset":6303492,
			"target":34962
		},
		{
			"buffer":0,
			"byteLength":172,
			"byteOffset":6374676
		},
		{
			"buffer":0,
			"byteLength":7396,
			"byteOffset":6374848
		}
	],
	"samplers":[
		{
			"magFilter":9729,
			"minFilter":9987
		}
	],
	"buffers":[
		{
			"byteLength":6382244,
			"uri":"scene.bin"
		}
	]
}
