{
	"asset":{
		"generator":"Khronos glTF Blender I/O v4.0.43",
		"version":"2.0"
	},
	"scene":0,
	"scenes":[
		{
			"name":"Scene",
			"nodes":[
				0,
				1,
				2,
				3
			]
		}
	],
	"nodes":[
		{
			"mesh":0,
			"name":"\u5e73\u9762"
		},
		{
			"mesh":1,
			"name":"\u5186\u67f1.002",
			"translation":[
				-199.92665100097656,
				0.7175650000572205,
				-12.20062255859375
			]
		},
		{
			"mesh":2,
			"name":"\u5186\u67f1.001",
			"rotation":[
				0,
				0,
				-1,
				0
			],
			"scale":[
				-1,
				-1,
				-1
			],
			"translation":[
				-199.92665100097656,
				0.7175650000572205,
				12.046890258789062
			]
		},
		{
			"mesh":3,
			"name":"\u30e1\u30c3\u30b7\u30e5"
		}
	],
	"materials":[
		{
			"doubleSided":true,
			"name":"\u30de\u30c6\u30ea\u30a2\u30eb",
			"pbrMetallicRoughness":{
				"baseColorFactor":[
					0.10309074074029922,
					0.4709707498550415,
					0.01931079663336277,
					1
				],
				"metallicFactor":0,
				"roughnessFactor":0.5
			}
		},
		{
			"doubleSided":true,
			"name":"\u30de\u30c6\u30ea\u30a2\u30eb.002",
			"pbrMetallicRoughness":{
				"baseColorFactor":[
					0.800000011920929,
					0.800000011920929,
					0.800000011920929,
					1
				],
				"metallicFactor":0,
				"roughnessFactor":0.5
			}
		},
		{
			"doubleSided":true,
			"name":"\u30de\u30c6\u30ea\u30a2\u30eb.001",
			"pbrMetallicRoughness":{
				"baseColorFactor":[
					0.800000011920929,
					0.800000011920929,
					0.800000011920929,
					1
				],
				"metallicFactor":0,
				"roughnessFactor":0.5
			}
		},
		{
			"doubleSided":true,
			"name":"\u30de\u30c6\u30ea\u30a2\u30eb",
			"pbrMetallicRoughness":{
				"baseColorFactor":[
					0.10309074074029922,
					0.4709707498550415,
					0.01931079663336277,
					1
				],
				"metallicFactor":0,
				"roughnessFactor":0.5
			}
		}
	],
	"meshes":[
		{
			"name":"\u5e73\u9762",
			"primitives":[
				{
					"attributes":{
						"POSITION":0,
						"NORMAL":1,
						"TEXCOORD_0":2
					},
					"indices":3,
					"material":0
				}
			]
		},
		{
			"name":"\u5186\u67f1.002",
			"primitives":[
				{
					"attributes":{
						"POSITION":4,
						"NORMAL":5,
						"TEXCOORD_0":6
					},
					"indices":7,
					"material":1
				}
			]
		},
		{
			"name":"\u5186\u67f1.005",
			"primitives":[
				{
					"attributes":{
						"POSITION":8,
						"NORMAL":9,
						"TEXCOORD_0":10
					},
					"indices":7,
					"material":2
				}
			]
		},
		{
			"name":"\u30e1\u30c3\u30b7\u30e5",
			"primitives":[
				{
					"attributes":{
						"POSITION":11
					},
					"indices":12,
					"material":3,
					"mode":1
				}
			]
		}
	],
	"accessors":[
		{
			"bufferView":0,
			"componentType":5126,
			"count":4,
			"max":[
				200,
				0,
				12.5
			],
			"min":[
				-200,
				0,
				-12.5
			],
			"type":"VEC3"
		},
		{
			"bufferView":1,
			"componentType":5126,
			"count":4,
			"type":"VEC3"
		},
		{
			"bufferView":2,
			"componentType":5126,
			"count":4,
			"type":"VEC2"
		},
		{
			"bufferView":3,
			"componentType":5123,
			"count":6,
			"type":"SCALAR"
		},
		{
			"bufferView":4,
			"componentType":5126,
			"count":260726,
			"max":[
				399.60296630859375,
				0.26555460691452026,
				0.2499818205833435
			],
			"min":[
				-1.0381773710250854,
				-0.6827682256698608,
				-0.12482288479804993
			],
			"type":"VEC3"
		},
		{
			"bufferView":5,
			"componentType":5126,
			"count":260726,
			"type":"VEC3"
		},
		{
			"bufferView":6,
			"componentType":5126,
			"count":260726,
			"type":"VEC2"
		},
		{
			"bufferView":7,
			"componentType":5125,
			"count":407976,
			"type":"SCALAR"
		},
		{
			"bufferView":8,
			"componentType":5126,
			"count":260726,
			"max":[
				399.60296630859375,
				0.26555460691452026,
				0.2499818205833435
			],
			"min":[
				-1.0381773710250854,
				-0.6827682256698608,
				-0.12482288479804993
			],
			"type":"VEC3"
		},
		{
			"bufferView":9,
			"componentType":5126,
			"count":260726,
			"type":"VEC3"
		},
		{
			"bufferView":10,
			"componentType":5126,
			"count":260726,
			"type":"VEC2"
		},
		{
			"bufferView":11,
			"componentType":5126,
			"count":7500000,
			"max":[
				200.04879760742188,
				0.30933067202568054,
				12.573953628540039
			],
			"min":[
				-200.0572509765625,
				0,
				-12.577706336975098
			],
			"type":"VEC3"
		},
		{
			"bufferView":12,
			"componentType":5125,
			"count":12000000,
			"type":"SCALAR"
		}
	],
	"bufferViews":[
		{
			"buffer":0,
			"byteLength":48,
			"byteOffset":0,
			"target":34962
		},
		{
			"buffer":0,
			"byteLength":48,
			"byteOffset":48,
			"target":34962
		},
		{
			"buffer":0,
			"byteLength":32,
			"byteOffset":96,
			"target":34962
		},
		{
			"buffer":0,
			"byteLength":12,
			"byteOffset":128,
			"target":34963
		},
		{
			"buffer":0,
			"byteLength":3128712,
			"byteOffset":140,
			"target":34962
		},
		{
			"buffer":0,
			"byteLength":3128712,
			"byteOffset":3128852,
			"target":34962
		},
		{
			"buffer":0,
			"byteLength":2085808,
			"byteOffset":6257564,
			"target":34962
		},
		{
			"buffer":0,
			"byteLength":1631904,
			"byteOffset":8343372,
			"target":34963
		},
		{
			"buffer":0,
			"byteLength":3128712,
			"byteOffset":9975276,
			"target":34962
		},
		{
			"buffer":0,
			"byteLength":3128712,
			"byteOffset":13103988,
			"target":34962
		},
		{
			"buffer":0,
			"byteLength":2085808,
			"byteOffset":16232700,
			"target":34962
		},
		{
			"buffer":0,
			"byteLength":90000000,
			"byteOffset":18318508,
			"target":34962
		},
		{
			"buffer":0,
			"byteLength":48000000,
			"byteOffset":108318508,
			"target":34963
		}
	],
	"buffers":[
		{
			"byteLength":156318508,
			"uri":"race-course.bin"
		}
	]
}
