{
	"asset":{
		"generator":"Khronos glTF Blender I/O v4.0.43",
		"version":"2.0"
	},
	"extensionsUsed":[
		"KHR_materials_unlit"
	],
	"scene":0,
	"scenes":[
		{
			"name":"Scene",
			"nodes":[
				0,
				1,
				2
			]
		}
	],
	"nodes":[
		{
			"mesh":0,
			"name":"\u5e73\u9762",
			"scale":[
				1.25,
				0.9580127596855164,
				1
			],
			"translation":[
				-0.13510465621948242,
				-0.17674875259399414,
				-0.3435697555541992
			]
		},
		{
			"mesh":1,
			"name":"\u5186\u67f1.002",
			"scale":[
				1.247999668121338,
				1,
				1
			],
			"translation":[
				-248.27706909179688,
				0.7175650000572205,
				-12.443483352661133
			]
		},
		{
			"mesh":2,
			"name":"\u5186\u67f1.001",
			"rotation":[
				0,
				0,
				-1,
				0
			],
			"scale":[
				-1.247999668121338,
				-1.0000001192092896,
				-1
			],
			"translation":[
				-248.49842834472656,
				0.7175650000572205,
				11.723054885864258
			]
		}
	],
	"materials":[
		{
			"doubleSided":true,
			"extensions":{
				"KHR_materials_unlit":{}
			},
			"name":"Grass 05",
			"pbrMetallicRoughness":{
				"baseColorTexture":{
					"index":0,
					"texCoord":1
				},
				"metallicFactor":0,
				"roughnessFactor":0.9
			}
		},
		{
			"doubleSided":true,
			"name":"\u30de\u30c6\u30ea\u30a2\u30eb.002",
			"pbrMetallicRoughness":{
				"baseColorFactor":[
					0.800000011920929,
					0.800000011920929,
					0.800000011920929,
					1
				],
				"metallicFactor":0,
				"roughnessFactor":0.5
			}
		},
		{
			"doubleSided":true,
			"name":"\u30de\u30c6\u30ea\u30a2\u30eb.001",
			"pbrMetallicRoughness":{
				"baseColorFactor":[
					0.800000011920929,
					0.800000011920929,
					0.800000011920929,
					1
				],
				"metallicFactor":0,
				"roughnessFactor":0.5
			}
		}
	],
	"meshes":[
		{
			"name":"\u5e73\u9762",
			"primitives":[
				{
					"attributes":{
						"POSITION":0,
						"NORMAL":1,
						"TEXCOORD_0":2,
						"TEXCOORD_1":3
					},
					"indices":4,
					"material":0
				}
			]
		},
		{
			"name":"\u5186\u67f1.002",
			"primitives":[
				{
					"attributes":{
						"POSITION":5,
						"NORMAL":6,
						"TEXCOORD_0":7
					},
					"indices":8,
					"material":1
				}
			]
		},
		{
			"name":"\u5186\u67f1.005",
			"primitives":[
				{
					"attributes":{
						"POSITION":9,
						"NORMAL":10,
						"TEXCOORD_0":11
					},
					"indices":8,
					"material":2
				}
			]
		}
	],
	"textures":[
		{
			"sampler":0,
			"source":0
		}
	],
	"images":[
		{
			"mimeType":"image/jpeg",
			"name":"Grass04_diffuseOriginal",
			"uri":"Grass04_diffuseOriginal.jpg"
		}
	],
	"accessors":[
		{
			"bufferView":0,
			"componentType":5126,
			"count":4,
			"max":[
				200,
				0,
				12.5
			],
			"min":[
				-200,
				0,
				-12.5
			],
			"type":"VEC3"
		},
		{
			"bufferView":1,
			"componentType":5126,
			"count":4,
			"type":"VEC3"
		},
		{
			"bufferView":2,
			"componentType":5126,
			"count":4,
			"type":"VEC2"
		},
		{
			"bufferView":3,
			"componentType":5126,
			"count":4,
			"type":"VEC2"
		},
		{
			"bufferView":4,
			"componentType":5123,
			"count":6,
			"type":"SCALAR"
		},
		{
			"bufferView":5,
			"componentType":5126,
			"count":260726,
			"max":[
				399.60296630859375,
				0.26555460691452026,
				0.2499818205833435
			],
			"min":[
				-1.0381773710250854,
				-0.6827682256698608,
				-0.12482288479804993
			],
			"type":"VEC3"
		},
		{
			"bufferView":6,
			"componentType":5126,
			"count":260726,
			"type":"VEC3"
		},
		{
			"bufferView":7,
			"componentType":5126,
			"count":260726,
			"type":"VEC2"
		},
		{
			"bufferView":8,
			"componentType":5125,
			"count":407976,
			"type":"SCALAR"
		},
		{
			"bufferView":9,
			"componentType":5126,
			"count":260726,
			"max":[
				399.60296630859375,
				0.26555460691452026,
				0.2499818205833435
			],
			"min":[
				-1.0381773710250854,
				-0.6827682256698608,
				-0.12482288479804993
			],
			"type":"VEC3"
		},
		{
			"bufferView":10,
			"componentType":5126,
			"count":260726,
			"type":"VEC3"
		},
		{
			"bufferView":11,
			"componentType":5126,
			"count":260726,
			"type":"VEC2"
		}
	],
	"bufferViews":[
		{
			"buffer":0,
			"byteLength":48,
			"byteOffset":0,
			"target":34962
		},
		{
			"buffer":0,
			"byteLength":48,
			"byteOffset":48,
			"target":34962
		},
		{
			"buffer":0,
			"byteLength":32,
			"byteOffset":96,
			"target":34962
		},
		{
			"buffer":0,
			"byteLength":32,
			"byteOffset":128,
			"target":34962
		},
		{
			"buffer":0,
			"byteLength":12,
			"byteOffset":160,
			"target":34963
		},
		{
			"buffer":0,
			"byteLength":3128712,
			"byteOffset":172,
			"target":34962
		},
		{
			"buffer":0,
			"byteLength":3128712,
			"byteOffset":3128884,
			"target":34962
		},
		{
			"buffer":0,
			"byteLength":2085808,
			"byteOffset":6257596,
			"target":34962
		},
		{
			"buffer":0,
			"byteLength":1631904,
			"byteOffset":8343404,
			"target":34963
		},
		{
			"buffer":0,
			"byteLength":3128712,
			"byteOffset":9975308,
			"target":34962
		},
		{
			"buffer":0,
			"byteLength":3128712,
			"byteOffset":13104020,
			"target":34962
		},
		{
			"buffer":0,
			"byteLength":2085808,
			"byteOffset":16232732,
			"target":34962
		}
	],
	"samplers":[
		{
			"magFilter":9729,
			"minFilter":9987
		}
	],
	"buffers":[
		{
			"byteLength":18318540,
			"uri":"scene.bin"
		}
	]
}
